<?xml version="1.0" encoding="UTF-8" ?>
<!DOCTYPE svg PUBLIC "-//W3C//DTD SVG 1.1//EN" "http://www.w3.org/Graphics/SVG/1.1/DTD/svg11.dtd">
<svg width="1024pt" height="1024pt" viewBox="0 0 1024 1024" version="1.1" xmlns="http://www.w3.org/2000/svg">
<g id="#fbfbfbff">
</g>
<g id="#1264a7ff">
<path fill="#1264a7" opacity="1.00" d=" M 462.69 269.64 C 498.54 255.70 540.06 257.59 574.63 274.41 C 613.09 292.68 642.69 328.55 653.27 369.80 C 657.78 383.34 659.30 397.77 659.01 411.99 C 659.13 419.46 657.42 426.77 656.16 434.09 C 652.72 455.51 644.49 476.17 631.93 493.89 C 629.41 497.67 626.38 501.08 623.79 504.82 C 622.74 505.80 623.26 507.13 623.50 508.34 C 628.19 509.54 633.07 509.81 637.71 511.23 C 642.66 512.76 645.83 517.13 649.53 520.46 C 670.60 541.40 691.59 562.41 712.69 583.30 C 715.17 585.83 717.92 588.13 720.00 591.02 C 722.89 595.07 722.35 600.32 722.14 605.02 C 721.87 611.32 716.10 615.01 712.27 619.27 C 708.08 623.07 704.70 628.47 698.83 629.75 C 693.62 630.55 687.59 630.31 683.63 626.36 C 660.36 602.97 636.94 579.72 613.71 556.29 C 610.43 552.90 606.62 549.84 604.48 545.54 C 601.85 540.41 601.59 534.52 600.68 528.93 C 599.02 528.71 597.32 528.80 595.99 529.94 C 580.05 541.41 561.71 549.67 542.40 553.40 C 507.87 560.35 470.79 554.54 440.45 536.48 C 408.25 517.38 383.38 485.91 373.17 449.80 C 368.20 431.36 365.66 412.03 368.01 392.98 C 370.87 366.41 381.31 340.73 397.36 319.39 C 413.84 297.08 436.81 279.62 462.69 269.64 M 504.33 308.29 C 470.61 311.37 439.26 332.94 424.41 363.38 C 416.73 379.02 413.29 396.62 414.00 413.99 C 414.97 448.52 435.49 481.66 465.78 498.20 C 482.41 507.66 501.95 511.73 520.98 510.08 C 554.74 507.86 586.25 486.50 601.47 456.38 C 619.83 420.84 615.13 374.44 589.25 343.76 C 576.20 327.80 558.00 316.11 538.02 310.97 C 527.06 308.02 515.61 307.44 504.33 308.29 Z" />
<path fill="#1264a7" opacity="1.00" d=" M 251.11 264.99 C 273.74 265.01 296.37 265.00 319.00 265.00 C 318.63 281.01 319.74 296.99 319.56 313.00 C 319.72 357.34 319.53 401.69 319.96 446.03 C 320.97 446.34 322.01 446.57 323.08 446.70 C 333.28 446.87 343.52 446.34 353.71 447.04 C 354.11 463.65 354.11 480.28 353.78 496.88 C 342.51 497.23 331.22 496.77 319.95 497.12 C 319.51 516.67 319.84 536.24 319.67 555.79 C 302.10 556.12 284.52 555.70 266.95 555.96 C 266.74 537.34 266.59 518.70 266.67 500.08 C 266.56 499.03 266.36 498.00 266.06 497.00 C 223.91 497.00 181.77 496.99 139.62 497.00 C 139.39 483.00 139.57 469.00 139.48 455.00 C 139.50 451.94 139.26 448.64 141.03 445.97 C 156.99 418.50 174.13 391.73 190.45 364.48 C 192.98 359.47 196.05 354.77 199.05 350.04 C 216.63 321.83 233.33 293.08 251.11 264.99 M 264.28 336.11 C 261.85 338.85 260.16 342.13 258.19 345.19 C 249.77 359.06 241.27 372.88 232.64 386.61 C 221.31 404.40 210.73 422.66 199.58 440.56 C 198.47 442.16 197.88 444.01 197.74 445.95 C 199.78 446.38 201.86 446.64 203.95 446.59 C 224.90 446.51 245.86 446.72 266.81 446.58 C 267.25 410.72 266.88 374.84 266.98 338.98 C 267.34 337.33 266.17 335.26 264.28 336.11 Z" />
<path fill="#1264a7" opacity="1.00" d=" M 771.13 265.00 C 792.98 265.06 814.83 264.89 836.68 265.08 C 836.63 325.35 836.96 385.63 837.11 445.90 C 849.63 446.46 862.19 446.26 874.70 446.92 C 874.96 463.54 875.05 480.17 874.84 496.79 C 862.30 497.08 849.73 496.33 837.21 497.23 C 836.72 516.82 837.14 536.42 837.00 556.02 C 820.08 556.23 803.14 556.26 786.22 556.01 C 786.18 536.39 786.32 516.76 785.83 497.15 C 782.23 496.72 778.61 496.61 775.00 496.67 C 740.64 496.63 706.27 496.64 671.90 496.75 C 671.96 473.85 671.83 450.94 671.83 428.06 C 675.51 418.68 681.86 410.55 686.87 401.83 C 694.38 389.35 701.91 376.88 709.53 364.46 C 714.14 358.27 718.00 351.59 721.90 344.94 C 733.03 325.60 745.29 306.93 756.74 287.77 C 761.57 280.21 766.04 272.40 771.13 265.00 M 780.12 338.16 C 767.02 358.80 754.57 379.83 741.39 400.41 C 732.26 414.70 723.22 429.05 714.51 443.59 C 713.36 444.88 714.25 447.11 716.06 446.94 C 739.32 447.01 762.59 447.12 785.85 446.83 C 786.32 441.23 786.32 435.61 786.38 430.00 C 786.56 400.33 786.43 370.67 786.48 341.00 C 786.49 337.91 786.49 334.80 786.03 331.74 C 783.06 332.75 781.79 335.78 780.12 338.16 Z" />
<path fill="#1264a7" opacity="1.00" d=" M 518.43 441.61 C 526.91 440.92 535.47 441.53 543.99 441.36 C 547.78 441.50 551.89 440.73 555.38 442.61 C 558.05 443.97 559.41 447.06 559.20 449.98 C 559.20 459.67 559.23 469.36 559.16 479.05 C 559.57 483.41 555.36 487.41 551.06 487.03 C 540.07 486.95 529.07 487.05 518.07 486.98 C 513.89 486.45 512.15 481.72 512.07 478.01 C 511.93 468.99 512.01 459.96 512.10 450.94 C 511.95 446.93 514.19 442.41 518.43 441.61 Z" />
<path fill="#1264a7" opacity="1.00" d=" M 610.41 662.57 C 625.82 660.23 642.49 665.26 653.38 676.60 C 672.15 695.15 671.82 729.39 652.31 747.31 C 642.95 756.37 629.86 760.78 616.98 760.95 C 602.31 760.56 587.22 754.80 577.89 743.10 C 562.31 724.23 563.57 693.44 581.49 676.49 C 589.22 668.76 599.60 663.99 610.41 662.57 M 612.31 681.25 C 603.24 682.70 595.12 688.83 590.99 696.98 C 585.04 709.32 587.32 725.85 598.02 734.90 C 608.38 744.32 625.66 744.45 636.17 735.20 C 649.64 723.84 650.05 700.75 637.25 688.73 C 630.81 682.28 621.17 679.95 612.31 681.25 Z" />
<path fill="#1264a7" opacity="1.00" d=" M 257.00 663.99 C 277.90 664.05 298.80 663.92 319.70 664.06 C 319.57 669.99 319.47 675.94 319.64 681.88 C 305.44 682.17 291.22 681.90 277.02 682.01 C 276.99 688.67 276.98 695.33 277.02 702.00 C 289.69 702.08 302.36 702.03 315.03 701.99 C 315.07 707.99 315.04 714.00 315.04 720.00 C 302.37 720.01 289.69 719.97 277.02 720.02 C 276.99 727.01 276.99 733.99 277.01 740.98 C 291.59 741.06 306.17 740.91 320.74 741.06 C 320.60 746.97 320.76 752.89 320.74 758.81 C 299.49 759.02 278.24 758.77 257.00 758.92 C 257.01 727.28 257.00 695.63 257.00 663.99 Z" />
<path fill="#1264a7" opacity="1.00" d=" M 358.00 664.00 C 371.01 663.99 384.03 664.01 397.04 663.99 C 404.73 664.20 412.68 666.26 418.70 671.24 C 431.25 681.86 432.40 703.16 421.12 715.09 C 417.81 718.68 413.37 720.94 408.80 722.46 C 409.21 723.59 409.61 724.74 410.24 725.79 C 417.23 736.82 424.66 747.60 431.34 758.83 C 423.67 758.79 415.99 758.96 408.32 758.76 C 401.69 747.60 395.43 736.22 388.80 725.05 C 385.22 724.95 381.64 724.93 378.06 725.00 C 377.95 736.29 378.10 747.58 378.01 758.87 C 371.35 758.77 364.69 758.87 358.03 758.88 C 357.96 727.26 358.02 695.63 358.00 664.00 M 378.05 681.80 C 378.10 690.40 377.89 699.00 378.18 707.60 C 384.55 707.26 390.96 707.88 397.31 707.15 C 402.31 706.67 406.89 702.90 407.82 697.88 C 408.17 694.67 408.35 691.18 406.74 688.26 C 404.78 684.29 400.29 682.19 396.03 681.95 C 390.04 681.61 384.04 681.85 378.05 681.80 Z" />
<path fill="#1264a7" opacity="1.00" d=" M 465.57 663.99 C 478.73 664.00 491.89 664.00 505.05 663.99 C 513.39 664.28 521.99 667.02 528.04 672.97 C 533.20 677.88 536.10 684.93 536.24 692.02 C 536.92 700.42 534.59 709.41 528.39 715.40 C 524.98 719.06 520.31 721.03 515.77 722.89 C 522.93 735.10 531.24 746.61 538.36 758.84 C 530.69 758.80 523.01 758.98 515.35 758.70 C 508.72 747.55 502.52 736.15 495.85 725.03 C 492.52 724.95 489.19 724.94 485.86 724.94 C 485.82 736.24 485.84 747.54 485.81 758.83 C 479.08 758.86 472.35 758.75 465.63 758.93 C 465.32 727.29 465.52 695.64 465.57 663.99 M 485.84 681.82 C 485.80 690.35 485.82 698.87 485.84 707.40 C 490.88 707.47 495.93 707.54 500.98 707.41 C 504.57 707.28 508.47 706.76 511.27 704.29 C 518.06 698.83 516.71 685.70 507.96 682.95 C 500.81 680.85 493.18 682.12 485.84 681.82 Z" />
<path fill="#1264a7" opacity="1.00" d=" M 702.70 664.00 C 715.81 664.00 728.93 664.00 742.05 663.99 C 749.22 664.22 756.61 666.18 762.31 670.70 C 775.54 681.35 776.40 703.57 764.59 715.59 C 761.33 718.85 757.13 720.99 752.81 722.47 C 753.96 726.45 756.83 729.56 758.92 733.06 C 764.40 741.65 770.13 750.09 775.36 758.83 C 767.69 758.79 760.01 758.96 752.34 758.79 C 745.87 747.53 739.48 736.21 732.87 725.03 C 729.49 724.95 726.12 724.94 722.74 725.00 C 722.59 736.26 722.70 747.53 722.71 758.80 C 716.06 758.93 709.41 758.79 702.77 758.84 C 702.49 727.23 702.63 695.61 702.70 664.00 M 722.71 681.83 C 722.80 690.42 722.30 699.05 722.93 707.63 C 728.53 707.31 734.14 707.72 739.75 707.36 C 743.25 707.14 746.89 705.96 749.28 703.26 C 752.53 699.85 752.78 694.64 751.78 690.28 C 750.54 685.49 745.81 682.35 741.04 682.02 C 734.94 681.57 728.81 681.84 722.71 681.83 Z" />
</g>
</svg>
