<?xml version="1.0" encoding="UTF-8" ?>
<!DOCTYPE svg PUBLIC "-//W3C//DTD SVG 1.1//EN" "http://www.w3.org/Graphics/SVG/1.1/DTD/svg11.dtd">
<svg width="225pt" height="225pt" viewBox="0 0 225 225" version="1.1" xmlns="http://www.w3.org/2000/svg">
<g id="#ffffffff">
</g>
<g id="#000000ff">
<path fill="#000000" opacity="1.00" d=" M 108.37 9.53 C 113.09 8.53 118.16 9.28 122.31 11.75 C 147.25 25.81 172.24 39.80 197.19 53.84 C 203.07 56.93 206.93 63.32 207.00 69.94 C 207.00 98.31 207.00 126.69 207.00 155.06 C 206.92 161.68 203.09 168.09 197.19 171.16 C 172.25 185.22 147.26 199.19 122.31 213.24 C 116.40 216.79 108.60 216.81 102.70 213.23 C 77.55 199.06 52.35 184.97 27.19 170.79 C 21.62 167.65 18.08 161.42 18.00 155.06 C 17.99 127.02 18.02 98.98 17.98 70.94 C 17.75 64.22 21.33 57.46 27.26 54.19 C 51.55 40.48 75.92 26.89 100.20 13.15 C 102.81 11.72 105.40 10.09 108.37 9.53 M 107.34 19.36 C 82.37 33.40 57.39 47.43 32.41 61.46 C 28.83 63.16 26.61 66.99 26.94 70.95 C 26.89 98.65 26.89 126.35 26.94 154.05 C 26.69 157.72 28.48 161.44 31.80 163.16 C 56.95 177.36 82.16 191.47 107.34 205.64 C 110.45 207.50 114.53 207.49 117.66 205.66 C 142.64 191.63 167.61 177.58 192.59 163.55 C 195.76 161.95 198.16 158.70 198.01 155.05 C 198.18 142.39 198.09 129.73 198.05 117.07 C 195.04 116.97 192.03 116.95 189.02 117.00 C 189.03 120.00 188.96 123.00 189.00 126.00 C 186.01 126.03 183.02 126.03 180.03 125.99 C 180.16 123.01 180.07 120.03 180.06 117.05 C 177.04 117.06 174.03 116.97 171.02 117.02 C 170.99 114.01 170.99 110.99 171.02 107.98 C 174.03 108.00 177.04 107.94 180.05 107.94 C 180.07 104.96 180.15 101.99 180.03 99.01 C 183.02 98.97 186.01 98.97 189.00 99.00 C 188.96 102.00 189.03 105.00 189.02 108.00 C 192.03 108.05 195.04 108.02 198.05 107.92 C 198.15 96.28 198.05 84.63 198.10 72.99 C 197.98 70.40 198.26 67.54 196.77 65.27 C 195.16 62.44 192.02 61.18 189.36 59.61 C 165.44 46.21 141.57 32.75 117.66 19.34 C 114.53 17.51 110.46 17.50 107.34 19.36 Z" />
<path fill="#000000" opacity="1.00" d=" M 106.55 54.36 C 128.15 51.81 150.24 62.91 161.92 81.12 C 153.00 86.49 143.94 91.63 134.91 96.83 C 129.34 90.01 121.04 85.05 112.02 85.43 C 99.36 85.41 87.71 95.49 85.81 107.98 C 83.93 118.13 88.63 129.04 97.18 134.78 C 104.87 140.27 115.51 141.08 124.00 136.97 C 128.35 135.05 131.75 131.62 134.91 128.16 C 143.93 133.37 153.00 138.50 161.92 143.88 C 152.95 157.58 138.36 167.56 122.11 170.13 C 105.26 173.19 87.26 167.88 74.35 156.71 C 61.43 145.74 53.93 128.88 53.98 111.97 C 54.25 99.46 58.39 86.98 66.09 77.07 C 75.66 64.33 90.72 55.97 106.55 54.36 Z" />
<path fill="#000000" opacity="1.00" d=" M 148.69 98.98 C 151.57 98.99 154.46 98.98 157.35 98.98 C 157.39 101.94 157.50 104.90 157.31 107.86 C 160.30 107.94 163.30 108.06 166.31 107.99 C 166.44 111.00 166.44 114.01 166.30 117.02 C 163.30 116.95 160.30 117.05 157.30 117.14 C 157.50 120.10 157.39 123.06 157.35 126.02 C 154.46 126.01 151.58 126.01 148.69 126.02 C 148.66 123.05 148.55 120.09 148.73 117.13 C 145.71 117.05 142.69 116.95 139.67 117.02 C 139.55 114.01 139.55 110.99 139.66 107.98 C 142.69 108.03 145.71 107.95 148.73 107.88 C 148.55 104.91 148.66 101.95 148.69 98.98 Z" />
</g>
</svg>
