<?xml version="1.0" encoding="UTF-8" ?>
<!DOCTYPE svg PUBLIC "-//W3C//DTD SVG 1.1//EN" "http://www.w3.org/Graphics/SVG/1.1/DTD/svg11.dtd">
<svg width="512pt" height="512pt" viewBox="0 0 512 512" version="1.1" xmlns="http://www.w3.org/2000/svg">
<g id="#000000ff">
<path fill="#000000" opacity="1.00" d=" M 32.04 0.00 L 479.97 0.00 C 468.07 135.00 456.05 269.99 444.05 404.99 C 442.29 423.60 441.04 442.26 439.00 460.84 C 383.76 476.37 328.46 491.72 273.21 507.20 C 267.92 508.69 262.55 509.96 257.43 512.00 L 254.60 512.00 C 243.01 507.92 230.99 505.21 219.22 501.72 C 170.47 488.05 121.67 474.55 72.95 460.79 C 66.69 393.89 61.09 326.92 55.02 260.00 C 47.36 173.33 39.64 86.67 32.04 0.00 M 114.24 94.28 C 115.33 111.99 116.80 129.69 117.70 147.41 C 137.45 147.80 157.22 147.46 176.98 147.41 C 230.15 147.35 283.32 147.04 336.49 147.00 C 336.47 153.52 335.73 160.01 335.34 166.52 C 334.17 179.14 333.67 191.81 332.41 204.42 C 262.83 205.24 193.25 205.99 123.67 206.90 C 125.01 224.72 127.38 242.46 129.05 260.26 C 134.02 260.64 139.01 260.40 143.99 260.43 C 176.00 260.36 208.00 260.31 240.00 260.22 C 269.26 260.26 298.54 259.71 327.80 260.19 C 325.52 279.12 323.69 298.10 321.45 317.04 C 320.59 324.21 320.20 331.46 318.82 338.56 C 298.74 343.83 278.71 349.33 258.67 354.73 C 255.27 355.94 251.86 354.30 248.58 353.53 C 230.10 348.57 211.68 343.42 193.16 338.64 C 191.20 322.93 190.11 307.11 188.64 291.34 C 169.79 291.36 150.94 291.43 132.09 291.30 C 132.04 297.26 132.93 303.18 133.37 309.11 C 135.67 333.38 137.71 357.68 139.91 381.96 C 177.38 392.73 215.07 402.79 252.60 413.35 C 254.81 414.11 257.18 414.05 259.39 413.33 C 296.93 402.77 334.62 392.72 372.11 382.02 C 380.67 286.11 389.33 190.21 397.78 94.29 C 303.27 94.20 208.75 94.21 114.24 94.28 Z" />
</g>
</svg>
