<?xml version="1.0" encoding="UTF-8" ?>
<!DOCTYPE svg PUBLIC "-//W3C//DTD SVG 1.1//EN" "http://www.w3.org/Graphics/SVG/1.1/DTD/svg11.dtd">
<svg width="512pt" height="512pt" viewBox="0 0 512 512" version="1.1" xmlns="http://www.w3.org/2000/svg">
<g id="#000000ff">
<path fill="#000000" opacity="1.00" d=" M 29.99 0.00 L 482.19 0.00 C 471.67 149.23 460.94 298.45 450.43 447.69 C 446.73 449.48 442.77 450.61 438.87 451.86 C 380.93 470.90 323.01 489.99 265.08 509.05 C 262.47 509.90 259.93 510.94 257.40 512.00 L 255.43 512.00 C 249.43 509.67 243.27 507.78 237.16 505.77 C 195.32 491.95 153.44 478.24 111.60 464.42 C 95.11 458.78 78.36 453.86 61.99 447.89 C 60.98 438.95 60.71 429.95 59.94 420.99 C 49.97 280.66 40.00 140.33 29.99 0.00 M 110.74 75.04 C 110.82 80.75 111.42 86.43 111.80 92.13 C 115.98 152.04 120.23 211.95 124.36 271.86 C 192.02 272.21 259.69 271.86 327.34 272.04 C 326.06 295.40 324.09 318.73 322.61 342.08 C 322.49 344.28 322.19 346.46 321.81 348.63 C 300.72 355.57 279.66 362.61 258.59 369.61 C 255.84 370.85 253.04 369.34 250.40 368.55 C 230.38 361.85 210.34 355.23 190.30 348.59 C 189.52 343.12 189.46 337.58 188.90 332.08 C 168.93 331.93 148.96 331.98 129.00 332.05 C 130.29 352.25 131.51 372.47 133.26 392.63 C 173.29 406.01 213.33 419.35 253.35 432.78 C 255.10 433.51 257.00 433.56 258.77 432.84 C 298.80 419.48 338.80 406.02 378.85 392.70 C 379.54 388.85 379.68 384.94 379.95 381.04 C 383.94 324.73 388.00 268.41 391.97 212.09 C 321.46 211.77 250.94 212.28 180.43 211.83 C 178.79 186.24 176.80 160.67 175.13 135.08 C 223.42 134.89 271.71 135.05 320.00 135.00 C 345.82 134.86 371.64 135.27 397.45 134.80 C 398.57 114.86 400.51 94.97 401.44 75.02 C 304.54 75.00 207.64 74.96 110.74 75.04 Z" />
</g>
</svg>
