<?xml version="1.0" encoding="UTF-8" ?>
<!DOCTYPE svg PUBLIC "-//W3C//DTD SVG 1.1//EN" "http://www.w3.org/Graphics/SVG/1.1/DTD/svg11.dtd">
<svg width="512pt" height="512pt" viewBox="0 0 512 512" version="1.1" xmlns="http://www.w3.org/2000/svg">
<g id="#000000ff">
<path fill="#000000" opacity="1.00" d=" M 0.00 0.00 L 512.00 0.00 L 512.00 512.00 L 0.00 512.00 L 0.00 0.00 M 365.26 235.41 C 355.05 238.34 345.60 243.60 337.68 250.65 C 332.85 255.60 328.40 261.07 325.54 267.44 C 318.75 280.06 318.14 294.98 319.98 308.90 C 321.81 322.26 328.06 334.90 337.57 344.44 C 352.14 358.62 371.32 366.35 389.76 374.11 C 398.47 378.12 407.61 381.59 415.17 387.64 C 423.01 393.26 425.87 404.45 422.30 413.31 C 418.93 421.03 411.14 425.92 403.11 427.63 C 392.27 430.32 380.67 429.06 370.35 424.93 C 359.18 420.10 350.80 410.65 344.58 400.45 C 344.22 400.40 343.51 400.31 343.15 400.27 C 333.46 405.51 324.12 411.42 314.46 416.73 C 311.77 418.87 308.33 419.81 305.75 422.10 C 305.35 422.18 304.54 422.34 304.13 422.42 C 306.12 424.77 307.03 427.80 308.89 430.26 C 313.08 437.74 319.35 443.71 325.51 449.56 C 329.03 453.07 333.48 455.40 337.47 458.31 C 353.65 467.58 372.33 472.19 390.95 471.92 C 409.19 472.44 427.80 468.71 443.57 459.26 C 450.74 454.46 457.49 448.70 462.09 441.30 C 469.51 430.41 472.54 417.09 472.52 404.05 C 472.26 393.64 470.56 383.16 466.32 373.59 C 459.82 360.61 448.71 350.49 436.40 343.10 C 423.22 335.11 408.92 329.25 394.78 323.24 C 387.57 319.68 379.81 316.73 373.84 311.16 C 365.03 303.78 364.24 288.69 372.84 280.84 C 379.94 273.63 391.41 273.39 400.57 276.09 C 409.79 278.92 415.60 287.04 420.40 294.88 C 420.92 294.75 421.97 294.50 422.49 294.37 C 434.21 285.96 446.94 278.98 458.65 270.56 C 456.42 268.49 455.51 265.49 453.63 263.15 C 449.99 257.66 445.31 253.00 440.53 248.50 C 431.40 240.43 419.74 235.69 407.82 233.60 C 393.73 231.40 379.04 231.46 365.26 235.41 M 230.42 235.06 C 230.48 289.37 230.43 343.68 230.44 397.99 C 230.54 404.54 229.96 411.29 227.24 417.32 C 224.77 422.76 219.55 426.64 213.75 427.88 C 205.50 429.33 196.34 429.04 189.30 423.95 C 182.60 418.78 178.27 411.27 174.21 403.99 C 160.60 411.49 147.62 420.22 134.06 427.80 C 136.12 430.93 137.88 434.27 139.73 437.54 C 147.02 448.55 156.87 458.04 168.79 463.88 C 180.10 469.18 192.57 471.99 205.07 471.86 C 219.26 472.19 233.90 470.11 246.55 463.33 C 262.01 455.62 272.56 440.08 276.33 423.43 C 279.67 410.90 278.76 397.84 278.89 385.01 C 278.89 335.02 278.89 285.03 278.90 235.04 C 262.74 235.05 246.58 235.02 230.42 235.06 Z" />
</g>
<g id="#ffffffff">
<path fill="#ffffff" opacity="1.00" d=" M 365.26 235.41 C 379.04 231.46 393.73 231.40 407.82 233.60 C 419.74 235.69 431.40 240.43 440.53 248.50 C 445.31 253.00 449.99 257.66 453.63 263.15 C 455.51 265.49 456.42 268.49 458.65 270.56 C 446.94 278.98 434.21 285.96 422.49 294.37 C 421.97 294.50 420.92 294.75 420.40 294.88 C 415.60 287.04 409.79 278.92 400.57 276.09 C 391.41 273.39 379.94 273.63 372.84 280.84 C 364.24 288.69 365.03 303.78 373.84 311.16 C 379.81 316.73 387.57 319.68 394.78 323.24 C 408.92 329.25 423.22 335.11 436.40 343.10 C 448.71 350.49 459.82 360.61 466.32 373.59 C 470.56 383.16 472.26 393.64 472.52 404.05 C 472.54 417.09 469.51 430.41 462.09 441.30 C 457.49 448.70 450.74 454.46 443.57 459.26 C 427.80 468.71 409.19 472.44 390.95 471.92 C 372.33 472.19 353.65 467.58 337.47 458.31 C 333.48 455.40 329.03 453.07 325.51 449.56 C 319.35 443.71 313.08 437.74 308.89 430.26 C 307.03 427.80 306.12 424.77 304.13 422.42 C 304.54 422.34 305.35 422.18 305.75 422.10 C 308.33 419.81 311.77 418.87 314.46 416.73 C 324.12 411.42 333.46 405.51 343.15 400.27 C 343.51 400.31 344.22 400.40 344.58 400.45 C 350.80 410.65 359.18 420.10 370.35 424.93 C 380.67 429.06 392.27 430.32 403.11 427.63 C 411.14 425.92 418.93 421.03 422.30 413.31 C 425.87 404.45 423.01 393.26 415.17 387.64 C 407.61 381.59 398.47 378.12 389.76 374.11 C 371.32 366.35 352.14 358.62 337.57 344.44 C 328.06 334.90 321.81 322.26 319.98 308.90 C 318.14 294.98 318.75 280.06 325.54 267.44 C 328.40 261.07 332.85 255.60 337.68 250.65 C 345.60 243.60 355.05 238.34 365.26 235.41 Z" />
<path fill="#ffffff" opacity="1.00" d=" M 230.42 235.06 C 246.58 235.02 262.74 235.05 278.90 235.04 C 278.89 285.03 278.89 335.02 278.89 385.01 C 278.76 397.84 279.67 410.90 276.33 423.43 C 272.56 440.08 262.01 455.62 246.55 463.33 C 233.90 470.11 219.26 472.19 205.07 471.86 C 192.57 471.99 180.10 469.18 168.79 463.88 C 156.87 458.04 147.02 448.55 139.73 437.54 C 137.88 434.27 136.12 430.93 134.06 427.80 C 147.62 420.22 160.60 411.49 174.21 403.99 C 178.27 411.27 182.60 418.78 189.30 423.95 C 196.34 429.04 205.50 429.33 213.75 427.88 C 219.55 426.64 224.77 422.76 227.24 417.32 C 229.96 411.29 230.54 404.54 230.44 397.99 C 230.43 343.68 230.48 289.37 230.42 235.06 Z" />
</g>
</svg>
