<svg width="300" height="300" viewBox="0 0 300 300" fill="none" xmlns="http://www.w3.org/2000/svg">
<path d="M150 3C231.186 3 297 68.8141 297 150V290C297 293.866 293.866 297 290 297H150C68.8141 297 3 231.186 3 150C3 68.8141 68.8141 3 150 3Z" fill="white" stroke="#3400D1" stroke-width="6"/>
<path fill-rule="evenodd" clip-rule="evenodd" d="M175.638 129.992C179.482 124.775 181.497 117.794 181.497 110.384C181.497 88.9809 163.912 81 148.485 81C133.058 81 116.198 88.2554 116.198 110.384C116.198 115.878 117.713 123.093 122.614 128.963C120.761 128.741 118.862 128.633 116.937 128.642C93.6741 128.747 85.08 146.572 85.1502 162.176C85.2204 177.78 93.1827 194.797 117.234 194.689C124.602 194.656 134.811 192.276 141.577 184.022C141.644 184.359 141.769 184.684 141.947 184.98L142.253 185.491C142.533 185.957 142.68 186.49 142.68 187.034V191.282V195.233C142.68 195.5 142.645 195.765 142.575 196.023L141.592 199.625L140.242 203.675C140.175 203.877 140.086 204.071 139.978 204.254L133.695 214.868C132.511 216.868 133.953 219.396 136.277 219.396H166.003C168.559 219.396 169.944 216.404 168.29 214.455L167.907 214.004C167.777 213.851 167.663 213.685 167.566 213.508L163.721 206.518L161.314 201.705C161.226 201.528 161.155 201.343 161.103 201.153L160.093 197.449L159.094 193.454C159.035 193.216 159.005 192.972 159.005 192.726V186.623C159.005 186.344 159.044 186.067 159.12 185.799L159.73 183.664L159.762 183.509C165.071 190.435 174.59 194.084 184.895 194.017C206.823 193.873 214.885 176.235 214.784 160.809C214.683 145.382 207.14 128.571 184.468 128.72C181.806 128.737 178.751 129.096 175.638 129.992Z" fill="#007211"/>
</svg>
