<svg width="300" height="300" viewBox="0 0 300 300" fill="none" xmlns="http://www.w3.org/2000/svg">
<path d="M150 3C231.186 3 297 68.8141 297 150V290C297 293.866 293.866 297 290 297H150C68.8141 297 3 231.186 3 150C3 68.8141 68.8141 3 150 3Z" stroke="black" stroke-width="6"/>
<path d="M181.497 110.384C181.497 125.621 172.981 139.043 157.554 139.043C123.454 142.671 116.198 122.405 116.198 110.384C116.198 88.2554 133.058 81 148.485 81C163.912 81 181.497 88.9809 181.497 110.384Z" fill="black"/>
<path d="M184.895 194.017C169.285 194.119 155.478 185.693 155.377 170.266C151.437 136.191 172.152 128.8 184.468 128.72C207.14 128.571 214.683 145.382 214.784 160.809C214.885 176.235 206.823 193.873 184.895 194.017Z" fill="black"/>
<path d="M116.937 128.642C133.496 128.568 148.123 137.115 148.194 152.719C152.292 187.193 130.299 194.63 117.234 194.689C93.1827 194.797 85.2204 177.78 85.1502 162.176C85.08 146.572 93.6741 128.747 116.937 128.642Z" fill="black"/>
<path d="M167.566 213.508C167.663 213.685 167.777 213.851 167.907 214.004L168.29 214.455C169.944 216.404 168.559 219.396 166.003 219.396H136.277C133.953 219.396 132.511 216.868 133.695 214.868L139.978 204.254C140.086 204.071 140.175 203.877 140.242 203.675L141.592 199.625L142.575 196.023C142.645 195.765 142.68 195.5 142.68 195.233V191.282V187.034C142.68 186.49 142.533 185.957 142.253 185.491L141.947 184.98C141.713 184.591 141.571 184.154 141.531 183.702L140.141 168.065L136.52 137.781C136.318 136.093 137.558 134.574 139.253 134.435L159.497 132.771C161.204 132.631 162.682 133.946 162.741 135.657L163.709 163.72C163.717 163.955 163.697 164.191 163.65 164.422L159.73 183.664L159.12 185.799C159.044 186.067 159.005 186.344 159.005 186.623V192.726C159.005 192.972 159.035 193.216 159.094 193.454L160.093 197.449L161.103 201.153C161.155 201.343 161.226 201.528 161.314 201.705L163.721 206.518L167.566 213.508Z" fill="black"/>
</svg>
