<?xml version="1.0" encoding="UTF-8" ?>
<!DOCTYPE svg PUBLIC "-//W3C//DTD SVG 1.1//EN" "http://www.w3.org/Graphics/SVG/1.1/DTD/svg11.dtd">
<svg width="512pt" height="512pt" viewBox="0 0 512 512" version="1.1" xmlns="http://www.w3.org/2000/svg">
<g id="#000000ff">
<path fill="#000000" opacity="1.00" d=" M 201.96 124.34 C 248.53 119.17 295.88 120.54 341.97 129.10 C 376.59 135.66 410.72 146.27 441.68 163.32 C 460.81 173.93 478.84 187.22 492.53 204.46 C 503.09 217.66 510.35 233.68 512.00 250.59 L 512.00 261.42 C 510.38 277.85 503.52 293.46 493.40 306.42 C 480.72 322.85 463.97 335.67 446.18 346.14 C 408.47 367.86 365.85 379.79 322.99 386.01 C 291.57 390.38 259.70 391.81 228.02 389.80 C 189.52 387.61 151.15 380.89 114.66 368.26 C 98.70 362.65 83.12 355.87 68.37 347.56 C 50.40 337.34 33.46 324.75 20.35 308.64 C 9.32 295.22 1.68 278.82 0.00 261.43 L 0.00 251.56 C 1.65 228.69 14.14 208.00 30.38 192.38 C 47.77 175.43 68.98 162.93 91.04 153.06 C 126.14 137.54 163.93 128.76 201.96 124.34 M 225.89 162.80 C 222.62 181.37 218.52 199.79 215.27 218.37 C 214.78 220.23 214.85 222.40 213.51 223.93 C 211.61 214.36 206.03 205.59 197.99 200.02 C 188.14 193.09 175.80 191.06 163.99 190.96 C 144.97 190.98 125.94 190.89 106.92 191.00 C 103.91 190.70 101.68 193.44 101.27 196.19 C 93.33 237.87 85.00 279.49 77.07 321.17 C 76.39 324.74 75.31 328.27 75.23 331.93 C 75.17 334.86 78.20 337.05 80.98 336.91 C 90.66 336.99 100.35 337.01 110.03 336.90 C 113.35 337.08 115.61 334.03 115.91 330.99 C 117.46 322.28 119.15 313.60 120.87 304.92 C 121.27 303.66 121.10 302.05 122.17 301.12 C 138.32 300.71 154.87 302.23 170.58 297.58 C 185.04 293.17 196.87 282.54 204.97 270.03 C 203.69 278.15 201.99 286.20 200.44 294.27 C 199.42 297.66 202.43 301.28 205.93 301.00 C 215.63 301.06 225.34 301.13 235.04 300.97 C 238.05 301.13 240.34 298.52 240.63 295.68 C 245.24 271.86 250.00 248.07 254.46 224.23 C 258.56 223.31 262.82 223.93 266.99 223.77 C 272.55 223.91 278.41 223.19 283.67 225.41 C 284.95 227.71 284.47 230.49 284.22 232.99 C 280.89 251.91 276.82 270.69 273.36 289.58 C 272.89 292.70 271.04 296.65 273.72 299.26 C 275.48 301.45 278.51 300.96 280.99 301.07 C 290.74 300.98 300.50 301.18 310.25 300.88 C 308.98 311.03 306.08 320.91 304.69 331.04 C 304.26 334.07 306.96 336.95 309.98 336.89 C 319.67 337.04 329.38 336.95 339.07 336.93 C 341.69 337.14 344.34 335.47 344.84 332.81 C 347.42 322.37 348.69 311.64 351.18 301.20 C 368.10 300.59 385.57 302.47 401.91 296.94 C 413.20 293.12 422.75 285.33 430.11 276.10 C 439.84 263.68 444.45 247.65 443.95 231.97 C 443.74 220.41 438.64 208.78 429.47 201.55 C 419.56 193.55 406.43 191.15 393.99 190.97 C 375.65 190.92 357.31 191.00 338.97 190.93 C 336.98 191.06 334.69 190.70 333.03 192.05 C 331.18 193.34 330.98 195.74 330.50 197.74 C 329.25 204.54 327.75 211.29 326.61 218.11 C 325.29 215.30 325.02 212.12 323.76 209.27 C 320.60 201.73 313.44 196.60 305.81 194.24 C 291.37 189.44 276.00 191.53 261.10 190.79 C 262.51 181.65 264.69 172.64 266.40 163.55 C 266.64 161.87 266.96 160.12 266.49 158.45 C 265.31 156.08 262.67 154.81 260.07 155.01 C 250.41 155.10 240.72 154.76 231.07 155.18 C 227.30 155.60 226.34 159.69 225.89 162.80 Z" />
<path fill="#000000" opacity="1.00" d=" M 232.12 161.08 C 234.64 160.23 237.39 160.72 240.00 160.61 C 246.97 160.81 253.97 160.27 260.92 160.87 C 259.59 172.79 255.90 184.36 254.68 196.27 C 271.23 197.22 288.32 194.43 304.38 199.64 C 311.43 201.73 317.80 207.04 319.67 214.36 C 322.47 224.61 319.06 235.09 317.25 245.21 C 313.89 261.98 310.77 278.79 307.48 295.57 C 297.71 295.62 287.94 295.55 278.17 295.61 C 278.30 290.62 279.92 285.83 280.73 280.93 C 283.52 265.85 286.54 250.82 289.48 235.78 C 290.09 231.09 291.26 225.22 287.48 221.52 C 283.47 218.23 277.92 218.37 273.02 218.24 C 265.42 218.31 257.80 218.05 250.21 218.33 C 246.86 232.03 244.99 246.06 241.92 259.83 C 239.27 271.68 237.92 283.85 234.69 295.55 C 225.18 295.65 215.67 295.54 206.17 295.61 C 206.20 291.98 207.24 288.47 207.91 284.93 C 216.01 243.66 223.78 202.31 232.12 161.08 Z" />
<path fill="#000000" opacity="1.00" d=" M 107.28 196.46 C 126.54 196.36 145.80 196.44 165.06 196.43 C 176.21 196.76 188.02 198.89 196.87 206.16 C 204.55 212.36 208.66 222.20 208.94 231.95 C 209.38 246.30 205.31 261.03 196.43 272.45 C 189.46 281.41 180.13 288.84 169.16 292.17 C 152.29 297.35 134.45 294.74 117.17 295.91 C 116.49 297.15 116.39 298.61 116.13 299.98 C 114.53 310.29 111.88 320.40 110.40 330.73 C 108.12 331.84 105.44 331.24 102.99 331.40 C 95.65 331.18 88.28 331.73 80.96 331.13 C 81.47 325.39 83.03 319.82 84.07 314.17 C 91.37 276.51 98.66 238.84 106.04 201.19 C 106.36 199.59 106.67 197.98 107.28 196.46 M 132.20 218.05 C 130.99 222.27 130.49 226.64 129.66 230.94 C 126.95 245.33 123.82 259.64 121.31 274.07 C 133.40 274.23 145.94 275.39 157.64 271.65 C 165.47 269.33 171.48 262.85 174.34 255.34 C 177.17 247.94 178.90 239.90 178.04 231.96 C 177.57 226.95 174.38 222.26 169.59 220.47 C 161.16 217.11 151.89 217.81 143.00 217.71 C 139.41 217.81 135.75 217.34 132.20 218.05 Z" />
<path fill="#000000" opacity="1.00" d=" M 336.45 196.45 C 351.29 196.36 366.15 196.45 381.00 196.42 C 390.03 196.52 399.18 195.88 408.06 197.91 C 418.23 199.87 428.19 205.38 433.49 214.55 C 439.68 225.08 439.24 238.07 436.64 249.62 C 431.61 272.06 412.41 291.56 389.17 294.29 C 375.26 296.55 361.13 295.09 347.13 295.71 L 346.44 296.24 C 344.35 306.93 342.06 317.59 340.23 328.33 C 339.94 329.57 339.85 331.69 337.99 331.34 C 328.87 331.36 319.74 331.53 310.63 331.23 C 311.99 318.90 315.15 306.80 317.37 294.59 C 319.52 281.99 322.31 269.51 324.67 256.95 C 326.98 243.31 330.16 229.84 332.50 216.21 C 333.79 209.62 334.97 203.00 336.45 196.45 M 361.48 218.22 C 358.12 236.87 354.06 255.40 350.90 274.07 C 362.59 274.33 374.62 275.15 386.03 271.99 C 393.64 269.94 399.97 264.27 403.06 257.04 C 406.30 249.52 408.20 241.24 407.64 233.03 C 407.32 228.09 404.76 222.99 400.05 220.96 C 391.30 216.87 381.37 217.89 372.00 217.71 C 368.50 217.86 364.88 217.22 361.48 218.22 Z" />
<path fill="#000000" opacity="1.00" d=" M 137.26 223.37 C 144.89 223.39 152.57 222.99 160.17 223.73 C 164.72 224.47 170.72 225.55 172.18 230.71 C 173.75 238.24 171.86 246.07 169.22 253.15 C 167.02 258.82 162.80 263.98 156.91 265.98 C 147.76 269.53 137.78 268.56 128.19 268.64 C 130.40 254.72 133.39 240.91 136.02 227.06 C 136.34 225.81 136.43 224.42 137.26 223.37 Z" />
<path fill="#000000" opacity="1.00" d=" M 366.34 223.41 C 375.92 223.61 385.79 222.26 395.14 224.92 C 398.91 225.79 401.92 228.98 402.04 232.94 C 402.60 241.86 400.55 251.17 395.72 258.73 C 392.04 264.40 385.37 266.99 378.94 267.93 C 371.81 269.11 364.55 268.57 357.36 268.65 C 360.61 253.63 362.92 238.40 366.34 223.41 Z" />
</g>
</svg>
