<?xml version="1.0" encoding="UTF-8" ?>
<!DOCTYPE svg PUBLIC "-//W3C//DTD SVG 1.1//EN" "http://www.w3.org/Graphics/SVG/1.1/DTD/svg11.dtd">
<svg width="512pt" height="512pt" viewBox="0 0 512 512" version="1.1" xmlns="http://www.w3.org/2000/svg">
<g id="#000000ff">
<path fill="#000000" opacity="1.00" d=" M 242.58 0.00 L 267.41 0.00 C 284.81 1.12 302.27 2.25 319.43 5.53 C 335.54 8.80 350.90 16.75 362.02 28.98 C 371.64 39.54 377.67 53.56 377.68 67.94 C 377.70 106.98 377.69 146.02 377.68 185.06 C 377.68 201.68 370.69 218.19 358.70 229.71 C 347.71 240.50 332.47 246.80 317.06 246.83 C 276.71 246.90 236.36 246.84 196.01 246.86 C 187.49 246.82 178.92 248.03 170.86 250.85 C 142.08 260.64 119.91 288.41 118.43 319.00 C 117.99 338.87 118.73 358.76 118.06 378.62 C 104.02 378.48 89.98 378.60 75.95 378.55 C 63.21 378.53 50.32 374.71 40.24 366.78 C 25.57 355.51 17.17 338.08 12.45 320.58 C 7.04 299.47 3.02 277.84 2.83 255.99 C 2.58 234.78 6.28 213.75 11.23 193.20 C 16.24 170.44 30.59 149.18 51.85 138.81 C 63.32 133.05 76.21 130.43 89.01 130.56 C 144.55 130.58 200.10 130.49 255.65 130.60 C 255.72 125.44 255.70 120.28 255.70 115.13 C 215.03 114.90 174.34 115.16 133.66 115.00 C 133.41 100.33 133.64 85.67 133.55 71.00 C 133.53 59.17 134.00 46.91 138.96 35.96 C 142.79 27.35 150.03 20.62 158.29 16.28 C 170.26 9.95 183.62 6.91 196.88 4.63 C 211.97 1.93 227.30 0.99 242.58 0.00 M 180.36 38.41 C 173.57 40.48 167.89 45.89 165.49 52.58 C 162.47 60.44 164.19 69.90 169.80 76.18 C 175.18 82.41 184.06 85.39 192.08 83.36 C 201.85 81.24 209.46 72.02 209.79 62.05 C 210.33 54.00 206.30 45.86 199.61 41.37 C 194.08 37.53 186.79 36.51 180.36 38.41 Z" />
<path fill="#000000" opacity="1.00" d=" M 393.00 130.66 C 404.66 130.41 416.33 130.62 428.00 130.55 C 439.15 130.44 450.78 130.11 461.16 134.87 C 476.84 141.48 487.10 156.40 493.20 171.73 C 500.17 189.46 503.71 208.31 506.76 227.04 C 510.49 252.45 510.14 278.67 503.64 303.61 C 499.67 318.15 494.81 332.54 488.05 346.04 C 482.05 357.95 473.21 369.27 460.57 374.51 C 450.00 379.14 438.27 378.64 427.00 378.55 C 369.93 378.63 312.85 378.41 255.78 378.66 C 255.61 383.77 255.61 388.88 255.78 393.99 C 296.43 394.17 337.08 393.89 377.72 394.12 C 377.67 406.75 377.69 419.37 377.69 432.00 C 377.68 438.54 377.97 445.17 376.62 451.61 C 374.75 461.20 369.90 470.09 363.17 477.14 C 353.41 487.52 340.47 494.27 327.27 499.19 C 306.76 506.56 285.14 510.49 263.43 512.00 L 245.62 512.00 C 234.31 510.87 222.98 509.71 211.90 507.09 C 191.07 502.49 169.87 495.73 153.36 481.68 C 141.70 471.91 133.61 457.39 133.60 441.96 C 133.50 402.98 133.59 364.00 133.55 325.01 C 133.38 309.54 139.36 294.18 149.73 282.73 C 160.84 270.28 177.16 262.33 193.94 262.27 C 233.63 262.28 273.31 262.27 313.00 262.28 C 318.41 262.28 323.86 262.11 329.19 261.10 C 359.03 255.77 384.14 231.33 390.91 201.88 C 393.63 191.13 392.85 179.97 392.95 169.00 C 392.99 156.22 392.89 143.44 393.00 130.66 M 319.41 425.62 C 309.91 427.66 302.24 436.29 301.54 446.02 C 300.54 455.03 305.29 464.38 313.27 468.74 C 320.26 472.76 329.43 472.51 336.23 468.21 C 342.80 464.18 347.04 456.72 347.18 449.02 C 347.52 441.66 344.02 434.27 338.16 429.81 C 332.93 425.74 325.87 424.18 319.41 425.62 Z" />
</g>
</svg>
